<?xml version="1.0" standalone="no"?>
<!DOCTYPE svg PUBLIC "-//W3C//DTD SVG 20010904//EN"
 "http://www.w3.org/TR/2001/REC-SVG-20010904/DTD/svg10.dtd">
<svg version="1.0" xmlns="http://www.w3.org/2000/svg"
 width="500.000000pt" height="500.000000pt" viewBox="0 0 500.000000 500.000000"
 preserveAspectRatio="xMidYMid meet">
<metadata>
Created by potrace 1.14, written by Peter Selinger 2001-2017
</metadata>
<g transform="translate(0.000000,500.000000) scale(0.100000,-0.100000)"
fill="#000000" stroke="none">
<path d="M2320 4490 c-30 -4 -79 -10 -107 -14 -98 -11 -208 -38 -342 -82 -629
-210 -1121 -730 -1299 -1374 -12 -41 -24 -90 -27 -109 -3 -19 -7 -37 -9 -40
-2 -3 -7 -31 -11 -61 -4 -30 -10 -66 -12 -80 -9 -53 -11 -369 -2 -450 96 -900
766 -1616 1660 -1775 59 -11 208 -27 249 -27 3 0 25 0 50 1 l45 1 -2 73 c-3
150 3 133 -50 134 -242 2 -523 72 -754 189 -540 270 -915 799 -986 1394 -10
83 -10 345 -1 431 45 393 230 770 527 1068 263 265 610 439 1001 502 124 20
398 19 525 -1 417 -67 751 -241 1041 -541 136 -142 223 -268 314 -454 110
-225 163 -427 176 -675 4 -58 8 -106 9 -108 6 -6 195 -5 201 1 14 13 2 194
-21 334 -38 225 -126 472 -235 663 -196 339 -510 633 -855 800 -294 142 -529
199 -850 204 -99 2 -205 0 -235 -4z"/>
<path d="M2315 4045 c-572 -76 -1056 -454 -1268 -990 -39 -100 -71 -221 -91
-346 -15 -95 -14 -378 2 -449 6 -25 13 -63 16 -85 29 -191 168 -496 297 -651
166 -197 318 -325 499 -418 41 -21 80 -42 85 -46 6 -4 53 -23 105 -43 127 -47
303 -85 425 -93 55 -3 106 -7 113 -9 8 -3 12 7 13 28 1 71 0 180 -3 182 -2 1
-49 5 -106 9 -56 4 -108 9 -115 11 -6 2 -23 6 -37 9 -247 42 -513 186 -709
386 -287 291 -424 696 -379 1120 17 155 79 342 163 490 212 374 609 641 1020
686 308 34 602 -28 860 -181 379 -224 630 -630 661 -1071 3 -49 7 -90 8 -91 2
-2 125 -5 170 -4 l38 1 -6 93 c-20 321 -134 621 -330 870 -294 375 -727 592
-1196 601 -80 1 -185 -3 -235 -9z"/>
<path d="M2428 3615 c-2 -1 -33 -5 -69 -9 -169 -16 -403 -116 -554 -239 -217
-175 -360 -418 -410 -693 -13 -76 -14 -303 -1 -364 3 -14 8 -38 12 -55 26
-130 86 -271 169 -395 190 -286 507 -472 843 -496 l92 -7 0 107 0 106 -27 0
c-102 1 -259 39 -362 87 -151 70 -318 224 -401 368 -242 425 -122 951 282
1223 220 149 512 195 759 122 376 -112 630 -424 663 -814 3 -32 7 -60 8 -62 4
-3 81 -6 151 -5 l59 1 -6 78 c-10 119 -24 184 -67 310 -132 378 -490 668 -899
728 -40 6 -237 13 -242 9z"/>
<path d="M2376 3159 c-249 -50 -452 -238 -524 -484 -27 -91 -32 -237 -12 -327
67 -300 308 -515 611 -545 l57 -5 4 68 c1 38 2 85 0 105 l-3 35 -74 13 c-98
16 -185 61 -256 132 -97 97 -141 207 -141 347 2 313 318 539 618 442 74 -23
98 -37 166 -92 81 -67 147 -190 162 -303 4 -27 9 -51 10 -53 3 -3 113 -4 179
-3 l28 1 -7 68 c-17 169 -102 333 -229 443 -22 18 -42 36 -45 39 -17 18 -95
60 -150 82 -132 54 -255 65 -394 37z"/>
<path d="M3675 2291 c-22 -10 -71 -33 -110 -51 -198 -92 -427 -165 -531 -169
-11 -1 -30 -10 -41 -20 -20 -19 -21 -29 -18 -183 4 -224 13 -319 50 -533 18
-110 72 -254 126 -341 65 -102 270 -291 424 -390 126 -81 176 -94 206 -58 6 8
16 14 21 14 10 0 166 104 219 147 136 109 247 228 303 325 30 52 81 194 90
252 4 21 8 41 10 45 2 3 7 31 11 61 4 30 9 58 11 61 2 3 6 37 10 75 3 38 8 83
10 99 8 64 14 371 8 397 -6 31 -24 43 -69 51 -139 23 -252 55 -390 110 -61 24
-147 63 -192 86 -46 22 -88 41 -95 41 -7 0 -31 -9 -53 -19z m133 -75 c192 -97
397 -169 542 -191 79 -12 75 -6 74 -102 -2 -94 -12 -287 -19 -343 -3 -19 -7
-57 -10 -85 -20 -165 -65 -329 -121 -435 -70 -134 -328 -365 -511 -458 l-42
-22 -63 37 c-172 101 -381 286 -459 407 -53 80 -107 235 -125 356 -3 19 -7 42
-9 50 -2 8 -7 42 -11 75 -3 33 -8 69 -10 80 -3 11 -7 111 -11 222 l-6 202 24
5 c132 27 197 43 274 68 93 31 298 118 350 150 41 25 56 23 133 -16z"/>
<path d="M3695 2114 c-123 -65 -392 -162 -523 -189 l-33 -7 6 -141 c3 -78 8
-159 10 -179 13 -103 17 -129 31 -205 26 -143 68 -261 116 -322 91 -118 195
-211 345 -313 88 -58 76 -60 208 33 109 78 281 247 317 311 29 52 64 142 73
185 37 183 54 313 61 489 l7 140 -109 28 c-120 31 -291 94 -403 150 -40 20
-74 36 -75 36 0 0 -14 -7 -31 -16z m178 -576 c-1 -145 -5 -250 -12 -271 -13
-37 -52 -78 -91 -93 -60 -24 -161 -13 -208 24 l-23 18 21 57 21 56 37 -19 c43
-22 83 -17 100 11 9 14 13 85 14 240 l1 220 70 -3 71 -3 -1 -237z"/>
</g>
</svg>
